<svg width="9" height="5" viewBox="0 0 9 5" fill="none" xmlns="http://www.w3.org/2000/svg">
<path d="M3.94546 4.01578L0.156773 0.762775C0.104516 0.717905 0.0654965 0.669446 0.039716 0.617398C0.0139355 0.56535 0.00069677 0.509114 0 0.448691C0 0.32904 0.0480771 0.224345 0.144231 0.134607C0.240386 0.0448687 0.366501 0 0.522577 0H8.46575C8.62252 0 8.74899 0.0448687 8.84514 0.134607C8.9413 0.224345 8.98902 0.32904 8.98833 0.448691C8.98833 0.478603 8.93607 0.583298 8.83155 0.762775L5.04287 4.01578C4.95577 4.09056 4.86868 4.14291 4.78158 4.17282C4.69448 4.20274 4.59868 4.21769 4.49416 4.21769C4.38965 4.21769 4.29384 4.20274 4.20675 4.17282C4.11965 4.14291 4.03255 4.09056 3.94546 4.01578Z" fill="#ED3545"/>
</svg>
